<svg width="393" height="414" viewBox="0 0 393 414" fill="none" xmlns="http://www.w3.org/2000/svg">
<path d="M71.8405 255.281L140.706 255.496L140.61 285.617C140.581 294.684 136.926 303.368 130.449 309.759C123.971 316.151 115.202 319.726 106.069 319.697C96.9374 319.668 88.1908 316.039 81.7538 309.608C75.3167 303.176 71.7165 294.469 71.7453 285.402L71.8405 255.281Z" fill="#8198C6"/>
<path d="M69.43 319.795C80.3124 319.795 89.1344 304.618 89.1344 285.897C89.1344 267.175 80.3124 251.997 69.43 251.997C58.5475 251.997 49.7256 267.175 49.7256 285.897C49.7256 304.618 58.5475 319.795 69.43 319.795Z" stroke="#8198C6" stroke-width="0.954738" stroke-linecap="round" stroke-linejoin="round"/>
<path d="M69.4303 319.808V268.97M69.4303 288.881L77.4102 279.825M69.4303 299.697L80.9346 286.645M69.4303 310.841L81.305 297.361M69.4303 288.901L59.7583 277.917M69.4303 299.717L57.5557 286.237M69.4303 310.861L57.5557 297.381" stroke="#8198C6" stroke-width="0.954738" stroke-linecap="round" stroke-linejoin="round"/>
<path d="M87.4749 286.937C87.4749 290.714 89.0269 293.737 86.9142 298.866C77.9031 291.699 71.0547 279.67 71.0547 267.274C71.1743 262.906 71.8162 258.568 72.967 254.35C82.0182 261.438 87.4749 274.541 87.4749 286.937Z" fill="#A9B5CC"/>
<path d="M94.2552 299.186C105.138 299.186 113.96 284.008 113.96 265.286C113.96 246.565 105.138 231.388 94.2552 231.388C83.3727 231.388 74.5508 246.565 74.5508 265.286C74.5508 284.008 83.3727 299.186 94.2552 299.186Z" fill="#F1F4FA" stroke="#A9B5CC" stroke-width="0.954738" stroke-miterlimit="10" stroke-linecap="round"/>
<path d="M94.255 248.388V319.915M94.255 268.301L103.917 257.335M94.255 279.117L106.13 265.637M94.255 290.26L106.13 276.781M94.255 268.321L84.5731 257.335M94.255 279.137L82.3804 265.656M94.255 290.281L82.3804 276.8" stroke="#A9B5CC" stroke-width="0.954738" stroke-linecap="round" stroke-linejoin="round"/>
<path d="M52.5582 300.798C49.7547 294.376 51.8774 290.439 51.8774 285.886C51.8774 276.313 55.1013 265.468 60.8885 258.668C62.44 263.532 63.2696 268.597 63.3515 273.698C63.3515 283.272 58.3454 293.979 52.5582 300.798Z" fill="#A9B5CC"/>
<path d="M39.1775 307.656C50.06 307.656 58.8819 292.479 58.8819 273.757C58.8819 255.035 50.06 239.858 39.1775 239.858C28.2951 239.858 19.4731 255.035 19.4731 273.757C19.4731 292.479 28.2951 307.656 39.1775 307.656Z" fill="#F1F4FA" stroke="#A9B5CC" stroke-width="0.954738" stroke-linecap="round" stroke-linejoin="round"/>
<path d="M39.1774 256.849V319.925M39.1774 276.761L48.8394 265.796M39.1774 287.577L51.0522 274.096M39.1774 298.721L51.0522 285.24M39.1774 276.78L29.5055 265.796M39.1774 287.596L27.3027 274.116M39.1774 298.75L27.3027 285.26" stroke="#A9B5CC" stroke-width="0.954738" stroke-linecap="round" stroke-linejoin="round"/>
<path d="M1.5 320H391.5" stroke="#8198C6" stroke-width="0.954738" stroke-linecap="round" stroke-linejoin="round"/>
<path d="M200.628 137.742H100.033C98.3741 137.742 97.0293 139.078 97.0293 140.724V213.891C97.0293 215.538 98.3741 216.873 100.033 216.873H200.628C202.286 216.873 203.631 215.538 203.631 213.891V140.724C203.631 139.078 202.286 137.742 200.628 137.742Z" stroke="#8198C6" stroke-width="0.954738" stroke-miterlimit="10" stroke-linecap="round"/>
<path d="M168.998 125.297L165.794 118.557C165.315 117.558 164.569 116.709 163.64 116.099C162.71 115.49 161.63 115.143 160.518 115.098L127.217 113.636C124.769 113.545 122.383 114.401 120.559 116.024C118.736 117.647 117.62 119.91 117.444 122.335L109.275 247.523C109.198 248.708 109.362 249.897 109.754 251.02C110.146 252.142 110.759 253.175 111.558 254.061C112.356 254.946 113.325 255.663 114.406 256.172C115.487 256.681 116.659 256.972 117.855 257.026L295.715 264.85C298.162 264.944 300.551 264.088 302.375 262.465C304.198 260.841 305.315 258.577 305.487 256.151L313.157 138.767C313.22 137.839 313.096 136.908 312.791 136.03C312.486 135.15 312.007 134.34 311.382 133.648C310.757 132.955 309.998 132.395 309.15 131.998C308.302 131.602 307.384 131.379 306.448 131.341L168.998 125.297Z" fill="#8198C6"/>
<path d="M170.88 139.235L162.019 148.571L111.576 146.353C110.659 146.297 109.74 146.434 108.879 146.757C108.019 147.079 107.237 147.579 106.587 148.224C105.935 148.869 105.429 149.643 105.102 150.496C104.775 151.35 104.634 152.262 104.688 153.173L108.333 247.453C108.469 249.928 109.515 252.264 111.272 254.023C113.029 255.782 115.374 256.841 117.864 256.997L295.724 264.821C296.899 264.89 298.076 264.712 299.177 264.297C300.278 263.883 301.278 263.242 302.112 262.417C302.946 261.592 303.595 260.601 304.016 259.509C304.437 258.417 304.621 257.25 304.555 256.083L300.44 149.793C300.34 147.859 299.526 146.03 298.154 144.655C296.782 143.279 294.947 142.454 293.001 142.337L176.096 137.188C175.129 137.135 174.162 137.291 173.262 137.644C172.361 137.997 171.548 138.54 170.88 139.235ZM275.689 100.247C275.595 100.249 275.503 100.224 275.423 100.176C275.344 100.127 275.279 100.057 275.238 99.9734C275.196 99.8891 275.181 99.796 275.192 99.703C275.202 99.611 275.24 99.5237 275.299 99.4518C276.751 97.5521 277.552 96.2503 277.552 96.2404C277.586 96.184 277.63 96.1348 277.684 96.0958C277.737 96.0568 277.798 96.0285 277.862 96.0128C277.925 95.9971 277.992 95.9941 278.058 96.0042C278.123 96.0143 278.186 96.0371 278.243 96.0713C278.299 96.1041 278.348 96.1478 278.387 96.1996C278.427 96.2516 278.455 96.3113 278.471 96.3736C278.487 96.4369 278.49 96.5021 278.48 96.5663C278.469 96.6306 278.447 96.6919 278.412 96.7476C277.701 97.8897 276.926 98.9915 276.09 100.048C276.042 100.109 275.982 100.159 275.913 100.193C275.843 100.228 275.767 100.246 275.689 100.247Z" fill="#A9B5CC"/>
<path d="M314.252 125.926C316.179 121.214 318.372 116.614 320.82 112.148C321.431 111.024 319.699 110.01 319.088 111.153C316.564 115.775 314.304 120.534 312.32 125.409C312.285 125.534 312.275 125.667 312.291 125.796C312.308 125.926 312.35 126.051 312.414 126.164C312.48 126.278 312.567 126.377 312.671 126.458C312.774 126.538 312.893 126.597 313.02 126.631C313.147 126.666 313.28 126.675 313.41 126.659C313.541 126.644 313.668 126.602 313.782 126.537C313.896 126.472 313.997 126.386 314.077 126.283C314.158 126.18 314.217 126.062 314.252 125.936V125.926ZM318.888 134.963L342.357 125.905C343.549 125.449 343.028 123.52 341.826 123.988L318.357 133.053C317.176 133.511 317.687 135.43 318.888 134.963ZM319.949 146.444L336.11 148.432C336.375 148.432 336.629 148.327 336.817 148.141C337.005 147.954 337.11 147.702 337.11 147.438C337.11 147.175 337.005 146.922 336.817 146.735C336.629 146.548 336.375 146.444 336.11 146.444L319.949 144.456C319.408 144.386 318.948 144.962 318.948 145.45C318.948 145.713 319.053 145.966 319.241 146.152C319.429 146.339 319.683 146.444 319.949 146.444Z" fill="#A9B5CC"/>
<path d="M217.342 142.255C216.561 142.255 215.76 142.235 214.938 142.195C214.806 142.188 214.681 142.13 214.592 142.032C214.503 141.934 214.456 141.805 214.463 141.673C214.47 141.541 214.529 141.417 214.628 141.329C214.726 141.241 214.856 141.195 214.988 141.202C217.661 141.332 220.341 141.238 222.999 140.923C223.063 140.913 223.129 140.917 223.193 140.933C223.256 140.949 223.315 140.978 223.367 141.019C223.419 141.059 223.461 141.109 223.492 141.166C223.524 141.223 223.543 141.286 223.549 141.35C223.559 141.416 223.556 141.482 223.539 141.545C223.523 141.608 223.493 141.668 223.453 141.72C223.413 141.771 223.362 141.815 223.305 141.847C223.248 141.88 223.184 141.9 223.118 141.907C221.202 142.14 219.273 142.257 217.342 142.255ZM230.928 140.157C230.823 140.158 230.719 140.127 230.633 140.066C230.546 140.005 230.482 139.919 230.448 139.82C230.409 139.693 230.421 139.556 230.48 139.438C230.54 139.319 230.643 139.228 230.768 139.183C233.299 138.354 235.727 137.243 238.007 135.873C238.12 135.807 238.255 135.788 238.383 135.819C238.509 135.851 238.62 135.93 238.688 136.042C238.724 136.097 238.749 136.16 238.759 136.225C238.77 136.29 238.767 136.357 238.751 136.421C238.735 136.486 238.707 136.545 238.666 136.598C238.627 136.651 238.575 136.695 238.518 136.728C236.174 138.127 233.683 139.268 231.089 140.128L230.928 140.157ZM244.675 131.916C244.576 131.915 244.479 131.885 244.398 131.828C244.316 131.772 244.253 131.694 244.217 131.602C244.18 131.511 244.172 131.41 244.193 131.314C244.214 131.217 244.264 131.13 244.335 131.061C246.259 129.228 247.988 127.203 249.491 125.018C249.528 124.963 249.576 124.917 249.631 124.881C249.685 124.844 249.747 124.819 249.812 124.807C249.876 124.794 249.942 124.795 250.007 124.808C250.071 124.821 250.133 124.846 250.187 124.883C250.241 124.92 250.289 124.967 250.325 125.021C250.361 125.075 250.387 125.137 250.399 125.201C250.412 125.265 250.411 125.331 250.398 125.395C250.385 125.459 250.359 125.52 250.323 125.574C248.779 127.819 247.004 129.898 245.026 131.777C244.98 131.823 244.926 131.859 244.866 131.883C244.805 131.907 244.741 131.918 244.675 131.916ZM253.777 118.724C253.714 118.739 253.649 118.739 253.587 118.724C253.525 118.7 253.47 118.665 253.422 118.619C253.376 118.574 253.339 118.519 253.313 118.459C253.288 118.398 253.275 118.333 253.276 118.268C253.276 118.202 253.29 118.138 253.316 118.079C253.647 117.283 253.947 116.488 254.217 115.712C252.483 116.155 250.709 116.425 248.92 116.518C248.854 116.526 248.786 116.521 248.722 116.5C248.658 116.481 248.598 116.448 248.549 116.404C248.499 116.359 248.458 116.305 248.431 116.244C248.404 116.183 248.389 116.117 248.39 116.051C248.384 115.917 248.432 115.788 248.522 115.689C248.612 115.59 248.737 115.531 248.87 115.523C250.805 115.407 252.719 115.073 254.578 114.53C254.987 113.19 255.288 111.821 255.479 110.434C255.487 110.368 255.507 110.305 255.539 110.247C255.572 110.19 255.615 110.139 255.667 110.098C255.719 110.058 255.779 110.028 255.843 110.01C255.907 109.993 255.973 109.988 256.039 109.996C256.17 110.016 256.287 110.085 256.367 110.189C256.448 110.292 256.484 110.423 256.47 110.553C256.305 111.781 256.055 112.997 255.719 114.191L256.62 113.883C256.74 113.854 256.866 113.868 256.975 113.925C257.083 113.981 257.168 114.076 257.211 114.19C257.255 114.304 257.254 114.431 257.21 114.544C257.166 114.658 257.08 114.752 256.971 114.808C256.44 115.006 255.909 115.175 255.378 115.334C255.058 116.329 254.678 117.383 254.237 118.416C254.2 118.507 254.138 118.586 254.055 118.642C253.973 118.696 253.876 118.725 253.777 118.724ZM240.901 115.553C240.845 115.563 240.787 115.563 240.73 115.553C237.999 114.711 235.704 112.847 234.333 110.355C234.272 110.237 234.26 110.1 234.301 109.975C234.34 109.848 234.429 109.744 234.548 109.683C234.666 109.623 234.804 109.611 234.931 109.651C235.058 109.691 235.163 109.779 235.224 109.897C236.478 112.161 238.572 113.852 241.061 114.609C241.186 114.654 241.288 114.746 241.346 114.864C241.404 114.983 241.414 115.119 241.371 115.245C241.336 115.34 241.271 115.422 241.187 115.479C241.103 115.536 241.002 115.565 240.901 115.563V115.553ZM263.979 111.179C263.897 111.181 263.817 111.162 263.745 111.124C263.673 111.085 263.613 111.03 263.569 110.961C263.531 110.907 263.504 110.847 263.491 110.783C263.477 110.72 263.476 110.655 263.488 110.59C263.5 110.526 263.526 110.466 263.561 110.411C263.597 110.357 263.645 110.31 263.699 110.275C265.917 108.791 267.996 107.111 269.907 105.254C270.003 105.162 270.13 105.111 270.264 105.113C270.33 105.114 270.396 105.128 270.456 105.154C270.517 105.18 270.572 105.217 270.617 105.264C270.664 105.311 270.699 105.367 270.725 105.428C270.749 105.489 270.76 105.554 270.759 105.619C270.758 105.684 270.745 105.75 270.719 105.81C270.693 105.87 270.655 105.924 270.608 105.97C268.652 107.867 266.528 109.584 264.26 111.1C264.178 111.158 264.08 111.189 263.979 111.189V111.179ZM254.217 103.366C254.135 103.366 254.053 103.345 253.982 103.304C253.91 103.264 253.85 103.207 253.807 103.137C252.334 100.976 250.266 99.2826 247.849 98.2556C247.789 98.2297 247.734 98.1923 247.688 98.1453C247.642 98.0983 247.606 98.0427 247.582 97.9813C247.558 97.9209 247.545 97.8557 247.547 97.7895C247.548 97.7243 247.563 97.6601 247.589 97.5997C247.613 97.5393 247.649 97.4837 247.695 97.4376C247.742 97.3916 247.797 97.3552 247.858 97.3302C247.919 97.3062 247.985 97.2947 248.05 97.2967C248.115 97.2986 248.18 97.3139 248.24 97.3417C250.823 98.4531 253.029 100.279 254.597 102.601C254.67 102.71 254.696 102.843 254.67 102.972C254.644 103.1 254.567 103.213 254.458 103.286C254.387 103.336 254.304 103.368 254.217 103.375V103.366ZM234.372 102.819C234.316 102.829 234.259 102.829 234.202 102.819C234.079 102.772 233.979 102.679 233.923 102.56C233.867 102.442 233.859 102.306 233.902 102.182C234.562 100.341 235.842 98.7821 237.526 97.7685C238.313 97.3178 239.154 96.9668 240.03 96.7251C240.158 96.6877 240.294 96.7031 240.41 96.7664C240.527 96.8296 240.613 96.9361 240.65 97.0627C240.685 97.1912 240.667 97.3264 240.602 97.4415C240.536 97.5565 240.428 97.6419 240.3 97.6793C239.501 97.9104 238.738 98.2441 238.028 98.6737C236.556 99.5425 235.428 100.886 234.833 102.481C234.799 102.577 234.737 102.66 234.655 102.72C234.573 102.78 234.475 102.814 234.372 102.819ZM206.798 141.241C205.507 141.002 204.175 140.724 202.854 140.396C202.72 140.365 202.605 140.284 202.534 140.17C202.461 140.055 202.438 139.917 202.468 139.784C202.499 139.653 202.581 139.539 202.696 139.467C202.811 139.395 202.951 139.372 203.084 139.402C204.396 139.72 205.707 139.998 206.979 140.237C207.108 140.261 207.223 140.336 207.299 140.443C207.373 140.552 207.402 140.685 207.379 140.813C207.369 140.879 207.346 140.943 207.312 141C207.278 141.057 207.232 141.107 207.178 141.147C207.125 141.186 207.063 141.215 206.998 141.231C206.933 141.248 206.865 141.251 206.798 141.241Z" fill="#A9B5CC"/>
<path d="M286.386 94.5297C289.004 91.6609 289.414 87.7965 287.304 85.8982C285.193 84 281.36 84.7868 278.743 87.6556C276.126 90.5244 275.715 94.3888 277.826 96.2869C279.936 98.1856 283.769 97.3983 286.386 94.5297Z" fill="#0D0E10"/>
<path d="M284.197 87.5542C285.833 87.5542 287.161 86.2368 287.161 84.6117C287.161 82.9865 285.833 81.6691 284.197 81.6691C282.56 81.6691 281.233 82.9865 281.233 84.6117C281.233 86.2368 282.56 87.5542 284.197 87.5542Z" fill="#A9B5CC"/>
<path d="M284.198 85.1982C284.524 85.1982 284.788 84.9356 284.788 84.6116C284.788 84.2877 284.524 84.0251 284.198 84.0251C283.871 84.0251 283.606 84.2877 283.606 84.6116C283.606 84.9356 283.871 85.1982 284.198 85.1982Z" fill="#0D0E10"/>
<path d="M288.885 91.7892C290.522 91.7892 291.849 90.4718 291.849 88.8466C291.849 87.2215 290.522 85.9041 288.885 85.9041C287.248 85.9041 285.921 87.2215 285.921 88.8466C285.921 90.4718 287.248 91.7892 288.885 91.7892Z" fill="#A9B5CC"/>
<path d="M288.885 89.4332C289.211 89.4332 289.477 89.1707 289.477 88.8467C289.477 88.5228 289.211 88.2602 288.885 88.2602C288.559 88.2602 288.294 88.5228 288.294 88.8467C288.294 89.1707 288.559 89.4332 288.885 89.4332Z" fill="#0D0E10"/>
<path d="M281.823 86.6752C281.951 86.7377 282.066 86.8249 282.162 86.9317C282.257 87.0385 282.33 87.1629 282.376 87.2977C282.423 87.4325 282.442 87.5752 282.433 87.7174C282.424 87.8596 282.387 87.9986 282.323 88.1265C281.252 90.2043 278.248 95.2742 273.092 98.0681C264.982 102.412 259.354 93.0971 263.16 88.5342C267.295 83.4642 277.146 84.4285 281.823 86.6752Z" fill="#A9B5CC"/>
<path d="M268.458 91.9781C268.377 91.9778 268.298 91.9587 268.227 91.9223C268.156 91.8861 268.094 91.8336 268.046 91.7694C267.974 91.6609 267.946 91.5282 267.97 91.3999C267.994 91.2715 268.069 91.1579 268.177 91.0835C275.717 85.8147 281.974 86.4807 282.195 86.5204C282.325 86.5355 282.445 86.6014 282.528 86.7038C282.611 86.8062 282.649 86.9368 282.635 87.0672C282.618 87.1983 282.549 87.3175 282.444 87.3992C282.339 87.4809 282.206 87.5188 282.074 87.5046C282.014 87.5046 275.916 86.8585 268.707 91.8887C268.635 91.9428 268.548 91.974 268.458 91.9781Z" fill="#F1F4FA"/>
<path d="M287.081 91.4805C287.007 91.3578 286.909 91.2511 286.793 91.1668C286.677 91.0824 286.545 91.0223 286.405 90.9898C286.264 90.9573 286.119 90.9533 285.977 90.9778C285.836 91.0023 285.7 91.0549 285.579 91.1326C283.577 92.3851 278.811 95.8646 276.568 101.223C273.013 109.673 282.856 114.315 287.1 110.101C291.737 105.498 289.804 95.8248 287.081 91.4805Z" fill="#A9B5CC"/>
<path d="M283.569 105.59C283.483 105.589 283.397 105.569 283.319 105.53C283.203 105.463 283.118 105.354 283.082 105.225C283.046 105.097 283.064 104.96 283.129 104.844C287.464 97.2288 286.223 91.2645 286.213 91.2049C286.198 91.1416 286.196 91.0759 286.207 91.0119C286.219 90.9478 286.243 90.8867 286.279 90.8321C286.314 90.7773 286.36 90.7303 286.414 90.6936C286.468 90.6569 286.529 90.6313 286.593 90.6184C286.657 90.6037 286.724 90.6019 286.79 90.6129C286.855 90.6241 286.916 90.6478 286.973 90.6829C287.029 90.7181 287.077 90.7639 287.115 90.8176C287.153 90.8714 287.18 90.9321 287.194 90.9961C287.254 91.2447 288.535 97.3583 284.01 105.341C283.964 105.416 283.899 105.479 283.823 105.522C283.745 105.566 283.658 105.589 283.569 105.59Z" fill="#F1F4FA"/>
<path d="M55.587 193.254C57.9316 193.254 59.8323 191.367 59.8323 189.039C59.8323 186.711 57.9316 184.824 55.587 184.824C53.2424 184.824 51.3418 186.711 51.3418 189.039C51.3418 191.367 53.2424 193.254 55.587 193.254Z" fill="#A9B5CC"/>
<path d="M156.757 309.407C160.125 309.407 162.855 306.696 162.855 303.353C162.855 300.009 160.125 297.298 156.757 297.298C153.389 297.298 150.659 300.009 150.659 303.353C150.659 306.696 153.389 309.407 156.757 309.407Z" fill="#A9B5CC"/>
<path d="M368.078 186.314C368.615 188.906 369.02 191.524 369.29 194.158C369.59 196.773 369.77 199.396 369.941 202.021C370.11 204.645 370.16 207.28 370.141 209.914C370.164 212.569 370.047 215.224 369.79 217.867C369.253 215.275 368.851 212.657 368.589 210.023C368.278 207.4 368.098 204.775 367.938 202.15C367.778 199.526 367.718 196.891 367.728 194.257C367.737 191.623 367.858 188.958 368.078 186.314Z" fill="#8198C6"/>
<path d="M376.918 202.418C379.57 202.149 382.207 201.747 384.818 201.215C382.145 200.947 379.572 200.877 376.858 200.867C374.145 200.858 371.491 200.917 368.848 201.076C366.206 201.235 363.562 201.414 360.928 201.712C358.277 201.98 355.64 202.381 353.029 202.915C355.691 203.166 358.365 203.282 361.039 203.263C363.692 203.283 366.345 203.214 368.989 203.055C371.632 202.895 374.276 202.716 376.918 202.418Z" fill="#8198C6"/>
<path d="M349.067 219.423C349.551 221.151 349.906 222.912 350.129 224.692C350.369 226.451 350.549 228.211 350.639 229.981C350.729 231.75 350.759 233.53 350.709 235.309C350.678 237.101 350.515 238.889 350.218 240.657C349.731 238.93 349.373 237.168 349.147 235.388C348.906 233.629 348.726 231.86 348.636 230.09C348.546 228.32 348.526 226.551 348.576 224.771C348.606 222.979 348.77 221.191 349.067 219.423Z" fill="#8198C6"/>
<path d="M355.024 230.528C356.817 230.299 358.589 229.944 360.33 229.464C358.549 229.178 356.749 229.016 354.944 228.977C353.152 228.927 351.37 228.957 349.588 229.046C347.805 229.135 346.023 229.315 344.25 229.553C342.458 229.774 340.684 230.126 338.944 230.607C340.725 230.901 342.526 231.064 344.331 231.094C346.123 231.144 347.915 231.134 349.698 231.035C351.479 230.935 353.252 230.766 355.024 230.528Z" fill="#8198C6"/>
<path d="M163.506 7.8435C163.215 5.21905 162.855 2.60456 162.305 0C162.052 2.64336 161.936 5.29772 161.954 7.95285C161.934 10.5873 161.994 13.2117 162.155 15.8461C162.315 18.4804 162.505 21.1049 162.805 23.7194C163.075 26.3525 163.48 28.9704 164.017 31.5629C164.287 28.8787 164.357 26.2444 164.367 23.61C164.378 20.9756 164.317 18.3512 164.157 15.7168C163.996 13.0824 163.796 10.468 163.506 7.8435Z" fill="#8198C6"/>
<path d="M179.034 14.9106C176.411 15.4574 173.778 15.8152 171.134 16.1035C168.491 16.3918 165.858 16.5906 163.214 16.7496C160.571 16.9087 157.918 16.9684 155.255 16.9584C152.581 16.9736 149.907 16.8542 147.245 16.6005C149.868 16.0538 152.501 15.6959 155.144 15.4076C157.788 15.1193 160.431 14.9205 163.075 14.7615C165.718 14.6024 168.371 14.5427 171.024 14.5627C173.699 14.5388 176.373 14.6549 179.034 14.9106Z" fill="#8198C6"/>
<path d="M26.2529 139.033C25.9625 136.409 25.6025 133.794 25.0519 131.19C24.7993 133.833 24.6832 136.488 24.7016 139.143C24.6812 141.777 24.7412 144.402 24.9019 147.036C25.0616 149.67 25.2522 152.295 25.5522 154.909C25.8222 157.542 26.2267 160.16 26.7638 162.753C27.0338 160.069 27.1045 157.434 27.1141 154.8C27.1248 152.166 27.0638 149.541 26.9042 146.907C26.7435 144.272 26.5432 141.658 26.2529 139.033Z" fill="#8198C6"/>
<path d="M41.7811 146.1C39.1585 146.647 36.5253 147.005 33.8814 147.293C31.2385 147.582 28.6052 147.781 25.9614 147.94C23.3185 148.099 20.6649 148.158 18.0017 148.148C15.3278 148.164 12.654 148.044 9.9917 147.79C12.6152 147.244 15.2485 146.886 17.8914 146.598C20.5353 146.309 23.1782 146.11 25.822 145.951C28.4649 145.792 31.1185 145.733 33.7711 145.753C36.4459 145.729 39.1198 145.845 41.7811 146.1Z" fill="#8198C6"/>
<path d="M182.24 37.5384C182.011 35.7589 181.653 33.9982 181.169 32.2696C180.873 34.0379 180.708 35.8255 180.678 37.6179C180.629 39.3974 180.659 41.1668 180.749 42.9364C180.839 44.7059 181.009 46.4754 181.259 48.235C181.482 50.0148 181.837 51.7759 182.321 53.5038C182.618 51.7321 182.781 49.9411 182.811 48.1455C182.862 46.376 182.852 44.5966 182.751 42.827C182.652 41.0575 182.481 39.2979 182.24 37.5384Z" fill="#8198C6"/>
<path d="M192.422 42.3101C190.681 42.7893 188.908 43.1447 187.116 43.3737C185.344 43.6123 183.561 43.7814 181.779 43.8807C179.997 43.9802 178.214 43.9901 176.422 43.9404C174.617 43.9109 172.816 43.7481 171.036 43.4533C172.776 42.9716 174.55 42.6193 176.343 42.3995C178.115 42.151 179.887 41.982 181.669 41.8926C183.451 41.8031 185.243 41.7733 187.026 41.8229C188.834 41.8529 190.638 42.0157 192.422 42.3101Z" fill="#8198C6"/>
<path d="M44.9874 168.728C44.7581 166.949 44.4 165.188 43.9161 163.46C43.62 165.228 43.4555 167.015 43.4255 168.808C43.3761 170.587 43.4061 172.357 43.4961 174.126C43.5861 175.896 43.7565 177.665 44.0061 179.425C44.2287 181.205 44.5839 182.966 45.0678 184.694C45.3649 182.922 45.5284 181.131 45.5584 179.335C45.6087 177.566 45.599 175.786 45.4984 174.017C45.3987 172.247 45.2284 170.488 44.9874 168.728Z" fill="#8198C6"/>
<path d="M55.1688 173.5C53.4279 173.979 51.655 174.335 49.8627 174.564C48.0908 174.802 46.3082 174.971 44.5256 175.071C42.744 175.17 40.9614 175.18 39.1692 175.13C37.3643 175.101 35.5634 174.938 33.7827 174.643C35.5227 174.161 37.2966 173.809 39.0898 173.589C40.8617 173.341 42.6337 173.172 44.4163 173.082C46.1979 172.993 47.9901 172.963 49.7727 173.013C51.5814 173.043 53.3853 173.206 55.1688 173.5Z" fill="#8198C6"/>
<path d="M22.5568 364.875H17.5795C17.4886 364.231 17.303 363.659 17.0227 363.159C16.7424 362.652 16.3826 362.22 15.9432 361.864C15.5038 361.508 14.9962 361.235 14.4205 361.045C13.8523 360.856 13.2348 360.761 12.5682 360.761C11.3636 360.761 10.3144 361.061 9.42045 361.659C8.52652 362.25 7.83333 363.114 7.34091 364.25C6.84849 365.379 6.60227 366.75 6.60227 368.364C6.60227 370.023 6.84849 371.417 7.34091 372.545C7.84091 373.674 8.53788 374.527 9.43182 375.102C10.3258 375.678 11.3598 375.966 12.5341 375.966C13.1932 375.966 13.803 375.879 14.3636 375.705C14.9318 375.53 15.4356 375.277 15.875 374.943C16.3144 374.602 16.678 374.189 16.9659 373.705C17.2614 373.22 17.4659 372.667 17.5795 372.045L22.5568 372.068C22.428 373.136 22.1061 374.167 21.5909 375.159C21.0833 376.144 20.3977 377.027 19.5341 377.807C18.678 378.58 17.6553 379.193 16.4659 379.648C15.2841 380.095 13.947 380.318 12.4545 380.318C10.3788 380.318 8.52273 379.848 6.88636 378.909C5.25758 377.97 3.9697 376.61 3.02273 374.83C2.08333 373.049 1.61364 370.894 1.61364 368.364C1.61364 365.826 2.09091 363.667 3.04545 361.886C4 360.106 5.29545 358.75 6.93182 357.818C8.56818 356.879 10.4091 356.409 12.4545 356.409C13.803 356.409 15.053 356.598 16.2045 356.977C17.3636 357.356 18.3902 357.909 19.2841 358.636C20.178 359.356 20.9053 360.239 21.4659 361.284C22.0341 362.33 22.3977 363.527 22.5568 364.875ZM25.9943 380V362.545H30.6875V365.591H30.8693C31.1875 364.508 31.7216 363.689 32.4716 363.136C33.2216 362.576 34.0852 362.295 35.0625 362.295C35.3049 362.295 35.5663 362.311 35.8466 362.341C36.1269 362.371 36.3731 362.413 36.5852 362.466V366.761C36.358 366.693 36.0436 366.633 35.642 366.58C35.2405 366.527 34.8731 366.5 34.5398 366.5C33.8277 366.5 33.1913 366.655 32.6307 366.966C32.0777 367.269 31.6383 367.693 31.3125 368.239C30.9943 368.784 30.8352 369.413 30.8352 370.125V380H25.9943ZM46.2301 380.341C44.4347 380.341 42.8892 379.977 41.5938 379.25C40.3059 378.515 39.3134 377.477 38.6165 376.136C37.9195 374.788 37.571 373.193 37.571 371.352C37.571 369.557 37.9195 367.981 38.6165 366.625C39.3134 365.269 40.2945 364.212 41.5597 363.455C42.8324 362.697 44.3248 362.318 46.0369 362.318C47.1884 362.318 48.2604 362.504 49.2528 362.875C50.2528 363.239 51.1241 363.788 51.8665 364.523C52.6165 365.258 53.1998 366.182 53.6165 367.295C54.0331 368.402 54.2415 369.697 54.2415 371.182V372.511H39.5028V369.511H49.6847C49.6847 368.814 49.5331 368.197 49.2301 367.659C48.9271 367.121 48.5066 366.701 47.9688 366.398C47.4384 366.087 46.821 365.932 46.1165 365.932C45.3816 365.932 44.7301 366.102 44.1619 366.443C43.6013 366.777 43.1619 367.227 42.8438 367.795C42.5256 368.356 42.3627 368.981 42.3551 369.67V372.523C42.3551 373.386 42.5142 374.133 42.8324 374.761C43.1581 375.39 43.6165 375.875 44.2074 376.216C44.7983 376.557 45.4991 376.727 46.3097 376.727C46.8475 376.727 47.34 376.652 47.7869 376.5C48.2339 376.348 48.6165 376.121 48.9347 375.818C49.2528 375.515 49.4953 375.144 49.6619 374.705L54.1392 375C53.9119 376.076 53.446 377.015 52.7415 377.818C52.0445 378.614 51.143 379.235 50.0369 379.682C48.9384 380.121 47.6695 380.341 46.2301 380.341ZM62.3778 380.33C61.2642 380.33 60.2718 380.136 59.4006 379.75C58.5294 379.356 57.84 378.777 57.3324 378.011C56.8324 377.239 56.5824 376.277 56.5824 375.125C56.5824 374.155 56.7604 373.341 57.1165 372.682C57.4725 372.023 57.9574 371.492 58.571 371.091C59.1847 370.689 59.8816 370.386 60.6619 370.182C61.4498 369.977 62.2756 369.833 63.1392 369.75C64.1544 369.644 64.9725 369.545 65.5938 369.455C66.215 369.356 66.6657 369.212 66.946 369.023C67.2263 368.833 67.3665 368.553 67.3665 368.182V368.114C67.3665 367.394 67.1392 366.837 66.6847 366.443C66.2377 366.049 65.6013 365.852 64.7756 365.852C63.9044 365.852 63.2112 366.045 62.696 366.432C62.1809 366.811 61.84 367.288 61.6733 367.864L57.196 367.5C57.4233 366.439 57.8703 365.523 58.5369 364.75C59.2036 363.97 60.0634 363.371 61.1165 362.955C62.1771 362.53 63.4044 362.318 64.7983 362.318C65.768 362.318 66.696 362.432 67.5824 362.659C68.4763 362.886 69.268 363.239 69.9574 363.716C70.6544 364.193 71.2036 364.807 71.6051 365.557C72.0066 366.299 72.2074 367.189 72.2074 368.227V380H67.6165V377.58H67.4801C67.1998 378.125 66.8248 378.606 66.3551 379.023C65.8854 379.432 65.321 379.754 64.6619 379.989C64.0028 380.216 63.2415 380.33 62.3778 380.33ZM63.7642 376.989C64.4763 376.989 65.1051 376.848 65.6506 376.568C66.196 376.28 66.6241 375.894 66.9347 375.409C67.2453 374.924 67.4006 374.375 67.4006 373.761V371.909C67.2491 372.008 67.0407 372.098 66.7756 372.182C66.518 372.258 66.2263 372.33 65.9006 372.398C65.5748 372.458 65.2491 372.515 64.9233 372.568C64.5975 372.614 64.3021 372.655 64.0369 372.693C63.4688 372.777 62.9725 372.909 62.5483 373.091C62.1241 373.273 61.7945 373.519 61.5597 373.83C61.3248 374.133 61.2074 374.511 61.2074 374.966C61.2074 375.625 61.446 376.129 61.9233 376.477C62.4081 376.818 63.0218 376.989 63.7642 376.989ZM85.2472 362.545V366.182H74.7358V362.545H85.2472ZM77.1222 358.364H81.9631V374.636C81.9631 375.083 82.0313 375.432 82.1676 375.682C82.304 375.924 82.4934 376.095 82.7358 376.193C82.9858 376.292 83.2737 376.341 83.5994 376.341C83.8267 376.341 84.054 376.322 84.2812 376.284C84.5085 376.239 84.6828 376.205 84.804 376.182L85.5653 379.784C85.3229 379.86 84.982 379.947 84.5426 380.045C84.1032 380.152 83.5691 380.216 82.9403 380.239C81.7737 380.284 80.7509 380.129 79.8722 379.773C79.0009 379.417 78.3229 378.864 77.8381 378.114C77.3532 377.364 77.1146 376.417 77.1222 375.273V358.364ZM96.1676 380.341C94.3722 380.341 92.8267 379.977 91.5312 379.25C90.2434 378.515 89.2509 377.477 88.554 376.136C87.857 374.788 87.5085 373.193 87.5085 371.352C87.5085 369.557 87.857 367.981 88.554 366.625C89.2509 365.269 90.232 364.212 91.4972 363.455C92.7699 362.697 94.2623 362.318 95.9744 362.318C97.1259 362.318 98.1979 362.504 99.1903 362.875C100.19 363.239 101.062 363.788 101.804 364.523C102.554 365.258 103.137 366.182 103.554 367.295C103.971 368.402 104.179 369.697 104.179 371.182V372.511H89.4403V369.511H99.6222C99.6222 368.814 99.4706 368.197 99.1676 367.659C98.8646 367.121 98.4441 366.701 97.9062 366.398C97.3759 366.087 96.7585 365.932 96.054 365.932C95.3191 365.932 94.6676 366.102 94.0994 366.443C93.5388 366.777 93.0994 367.227 92.7812 367.795C92.4631 368.356 92.3002 368.981 92.2926 369.67V372.523C92.2926 373.386 92.4517 374.133 92.7699 374.761C93.0956 375.39 93.554 375.875 94.1449 376.216C94.7358 376.557 95.4366 376.727 96.2472 376.727C96.785 376.727 97.2775 376.652 97.7244 376.5C98.1714 376.348 98.554 376.121 98.8722 375.818C99.1903 375.515 99.4328 375.144 99.5994 374.705L104.077 375C103.849 376.076 103.384 377.015 102.679 377.818C101.982 378.614 101.08 379.235 99.9744 379.682C98.8759 380.121 97.607 380.341 96.1676 380.341ZM117.733 386.545C117.119 386.545 116.544 386.496 116.006 386.398C115.475 386.307 115.036 386.189 114.688 386.045L115.778 382.432C116.347 382.606 116.858 382.701 117.312 382.716C117.775 382.731 118.172 382.625 118.506 382.398C118.847 382.17 119.123 381.784 119.335 381.239L119.619 380.5L113.358 362.545H118.449L122.062 375.364H122.244L125.892 362.545H131.017L124.233 381.886C123.907 382.826 123.464 383.644 122.903 384.341C122.35 385.045 121.65 385.587 120.801 385.966C119.953 386.352 118.93 386.545 117.733 386.545ZM140.818 380.341C139.053 380.341 137.527 379.966 136.239 379.216C134.958 378.458 133.97 377.405 133.273 376.057C132.576 374.701 132.227 373.129 132.227 371.341C132.227 369.538 132.576 367.962 133.273 366.614C133.97 365.258 134.958 364.205 136.239 363.455C137.527 362.697 139.053 362.318 140.818 362.318C142.583 362.318 144.106 362.697 145.386 363.455C146.674 364.205 147.667 365.258 148.364 366.614C149.061 367.962 149.409 369.538 149.409 371.341C149.409 373.129 149.061 374.701 148.364 376.057C147.667 377.405 146.674 378.458 145.386 379.216C144.106 379.966 142.583 380.341 140.818 380.341ZM140.841 376.591C141.644 376.591 142.314 376.364 142.852 375.909C143.39 375.447 143.795 374.818 144.068 374.023C144.348 373.227 144.489 372.322 144.489 371.307C144.489 370.292 144.348 369.386 144.068 368.591C143.795 367.795 143.39 367.167 142.852 366.705C142.314 366.242 141.644 366.011 140.841 366.011C140.03 366.011 139.348 366.242 138.795 366.705C138.25 367.167 137.837 367.795 137.557 368.591C137.284 369.386 137.148 370.292 137.148 371.307C137.148 372.322 137.284 373.227 137.557 374.023C137.837 374.818 138.25 375.447 138.795 375.909C139.348 376.364 140.03 376.591 140.841 376.591ZM163.75 372.568V362.545H168.591V380H163.943V376.83H163.761C163.367 377.852 162.712 378.674 161.795 379.295C160.886 379.917 159.777 380.227 158.466 380.227C157.299 380.227 156.273 379.962 155.386 379.432C154.5 378.902 153.807 378.148 153.307 377.17C152.814 376.193 152.564 375.023 152.557 373.659V362.545H157.398V372.795C157.405 373.826 157.682 374.64 158.227 375.239C158.773 375.837 159.504 376.136 160.42 376.136C161.004 376.136 161.549 376.004 162.057 375.739C162.564 375.466 162.973 375.064 163.284 374.534C163.602 374.004 163.758 373.348 163.75 372.568ZM172.463 380V362.545H177.156V365.591H177.338C177.656 364.508 178.19 363.689 178.94 363.136C179.69 362.576 180.554 362.295 181.531 362.295C181.774 362.295 182.035 362.311 182.315 362.341C182.596 362.371 182.842 362.413 183.054 362.466V366.761C182.827 366.693 182.512 366.633 182.111 366.58C181.709 366.527 181.342 366.5 181.009 366.5C180.296 366.5 179.66 366.655 179.099 366.966C178.546 367.269 178.107 367.693 177.781 368.239C177.463 368.784 177.304 369.413 177.304 370.125V380H172.463ZM202.349 362.545V366.182H191.577V362.545H202.349ZM194.043 380V361.284C194.043 360.019 194.289 358.97 194.781 358.136C195.281 357.303 195.963 356.678 196.827 356.261C197.69 355.845 198.671 355.636 199.77 355.636C200.512 355.636 201.19 355.693 201.804 355.807C202.425 355.92 202.887 356.023 203.19 356.114L202.327 359.75C202.137 359.689 201.902 359.633 201.622 359.58C201.349 359.527 201.069 359.5 200.781 359.5C200.069 359.5 199.573 359.667 199.293 360C199.012 360.326 198.872 360.784 198.872 361.375V380H194.043ZM205.307 380V362.545H210.148V380H205.307ZM207.739 360.295C207.019 360.295 206.402 360.057 205.886 359.58C205.379 359.095 205.125 358.515 205.125 357.841C205.125 357.174 205.379 356.602 205.886 356.125C206.402 355.64 207.019 355.398 207.739 355.398C208.458 355.398 209.072 355.64 209.58 356.125C210.095 356.602 210.352 357.174 210.352 357.841C210.352 358.515 210.095 359.095 209.58 359.58C209.072 360.057 208.458 360.295 207.739 360.295ZM214.026 380V362.545H218.719V365.591H218.901C219.219 364.508 219.753 363.689 220.503 363.136C221.253 362.576 222.116 362.295 223.094 362.295C223.336 362.295 223.598 362.311 223.878 362.341C224.158 362.371 224.404 362.413 224.616 362.466V366.761C224.389 366.693 224.075 366.633 223.673 366.58C223.272 366.527 222.904 366.5 222.571 366.5C221.859 366.5 221.223 366.655 220.662 366.966C220.109 367.269 219.67 367.693 219.344 368.239C219.026 368.784 218.866 369.413 218.866 370.125V380H214.026ZM241.642 367.523L237.21 367.795C237.134 367.417 236.972 367.076 236.722 366.773C236.472 366.462 236.142 366.216 235.733 366.034C235.331 365.845 234.85 365.75 234.29 365.75C233.54 365.75 232.907 365.909 232.392 366.227C231.877 366.538 231.619 366.955 231.619 367.477C231.619 367.894 231.786 368.246 232.119 368.534C232.453 368.822 233.025 369.053 233.835 369.227L236.994 369.864C238.691 370.212 239.956 370.773 240.79 371.545C241.623 372.318 242.04 373.333 242.04 374.591C242.04 375.735 241.703 376.739 241.028 377.602C240.362 378.466 239.445 379.14 238.278 379.625C237.119 380.102 235.782 380.341 234.267 380.341C231.956 380.341 230.116 379.86 228.744 378.898C227.381 377.928 226.581 376.61 226.347 374.943L231.108 374.693C231.252 375.398 231.6 375.936 232.153 376.307C232.706 376.67 233.415 376.852 234.278 376.852C235.127 376.852 235.809 376.689 236.324 376.364C236.847 376.03 237.112 375.602 237.119 375.08C237.112 374.64 236.926 374.28 236.562 374C236.199 373.712 235.638 373.492 234.881 373.341L231.858 372.739C230.153 372.398 228.884 371.807 228.051 370.966C227.225 370.125 226.812 369.053 226.812 367.75C226.812 366.629 227.116 365.663 227.722 364.852C228.335 364.042 229.195 363.417 230.301 362.977C231.415 362.538 232.718 362.318 234.21 362.318C236.415 362.318 238.15 362.784 239.415 363.716C240.688 364.648 241.43 365.917 241.642 367.523ZM254.372 362.545V366.182H243.861V362.545H254.372ZM246.247 358.364H251.088V374.636C251.088 375.083 251.156 375.432 251.293 375.682C251.429 375.924 251.618 376.095 251.861 376.193C252.111 376.292 252.399 376.341 252.724 376.341C252.952 376.341 253.179 376.322 253.406 376.284C253.634 376.239 253.808 376.205 253.929 376.182L254.69 379.784C254.448 379.86 254.107 379.947 253.668 380.045C253.228 380.152 252.694 380.216 252.065 380.239C250.899 380.284 249.876 380.129 248.997 379.773C248.126 379.417 247.448 378.864 246.963 378.114C246.478 377.364 246.24 376.417 246.247 375.273V358.364ZM264.932 380V362.545H269.545V365.625H269.75C270.114 364.602 270.72 363.795 271.568 363.205C272.417 362.614 273.432 362.318 274.614 362.318C275.811 362.318 276.83 362.617 277.67 363.216C278.511 363.807 279.072 364.61 279.352 365.625H279.534C279.89 364.625 280.534 363.826 281.466 363.227C282.405 362.621 283.515 362.318 284.795 362.318C286.424 362.318 287.746 362.837 288.761 363.875C289.784 364.905 290.295 366.367 290.295 368.261V380H285.466V369.216C285.466 368.246 285.208 367.519 284.693 367.034C284.178 366.549 283.534 366.307 282.761 366.307C281.883 366.307 281.197 366.587 280.705 367.148C280.212 367.701 279.966 368.432 279.966 369.341V380H275.273V369.114C275.273 368.258 275.027 367.576 274.534 367.068C274.049 366.561 273.409 366.307 272.614 366.307C272.076 366.307 271.591 366.443 271.159 366.716C270.735 366.981 270.398 367.356 270.148 367.841C269.898 368.318 269.773 368.879 269.773 369.523V380H264.932ZM302.074 380.341C300.278 380.341 298.733 379.977 297.438 379.25C296.15 378.515 295.157 377.477 294.46 376.136C293.763 374.788 293.415 373.193 293.415 371.352C293.415 369.557 293.763 367.981 294.46 366.625C295.157 365.269 296.138 364.212 297.403 363.455C298.676 362.697 300.169 362.318 301.881 362.318C303.032 362.318 304.104 362.504 305.097 362.875C306.097 363.239 306.968 363.788 307.71 364.523C308.46 365.258 309.044 366.182 309.46 367.295C309.877 368.402 310.085 369.697 310.085 371.182V372.511H295.347V369.511H305.528C305.528 368.814 305.377 368.197 305.074 367.659C304.771 367.121 304.35 366.701 303.812 366.398C303.282 366.087 302.665 365.932 301.96 365.932C301.225 365.932 300.574 366.102 300.006 366.443C299.445 366.777 299.006 367.227 298.688 367.795C298.369 368.356 298.206 368.981 298.199 369.67V372.523C298.199 373.386 298.358 374.133 298.676 374.761C299.002 375.39 299.46 375.875 300.051 376.216C300.642 376.557 301.343 376.727 302.153 376.727C302.691 376.727 303.184 376.652 303.631 376.5C304.078 376.348 304.46 376.121 304.778 375.818C305.097 375.515 305.339 375.144 305.506 374.705L309.983 375C309.756 376.076 309.29 377.015 308.585 377.818C307.888 378.614 306.987 379.235 305.881 379.682C304.782 380.121 303.513 380.341 302.074 380.341ZM313.244 380V362.545H317.858V365.625H318.062C318.426 364.602 319.032 363.795 319.881 363.205C320.729 362.614 321.744 362.318 322.926 362.318C324.123 362.318 325.142 362.617 325.983 363.216C326.824 363.807 327.384 364.61 327.665 365.625H327.847C328.203 364.625 328.847 363.826 329.778 363.227C330.718 362.621 331.828 362.318 333.108 362.318C334.737 362.318 336.059 362.837 337.074 363.875C338.097 364.905 338.608 366.367 338.608 368.261V380H333.778V369.216C333.778 368.246 333.521 367.519 333.006 367.034C332.491 366.549 331.847 366.307 331.074 366.307C330.195 366.307 329.509 366.587 329.017 367.148C328.525 367.701 328.278 368.432 328.278 369.341V380H323.585V369.114C323.585 368.258 323.339 367.576 322.847 367.068C322.362 366.561 321.722 366.307 320.926 366.307C320.388 366.307 319.903 366.443 319.472 366.716C319.047 366.981 318.71 367.356 318.46 367.841C318.21 368.318 318.085 368.879 318.085 369.523V380H313.244ZM350.318 380.341C348.553 380.341 347.027 379.966 345.739 379.216C344.458 378.458 343.47 377.405 342.773 376.057C342.076 374.701 341.727 373.129 341.727 371.341C341.727 369.538 342.076 367.962 342.773 366.614C343.47 365.258 344.458 364.205 345.739 363.455C347.027 362.697 348.553 362.318 350.318 362.318C352.083 362.318 353.606 362.697 354.886 363.455C356.174 364.205 357.167 365.258 357.864 366.614C358.561 367.962 358.909 369.538 358.909 371.341C358.909 373.129 358.561 374.701 357.864 376.057C357.167 377.405 356.174 378.458 354.886 379.216C353.606 379.966 352.083 380.341 350.318 380.341ZM350.341 376.591C351.144 376.591 351.814 376.364 352.352 375.909C352.89 375.447 353.295 374.818 353.568 374.023C353.848 373.227 353.989 372.322 353.989 371.307C353.989 370.292 353.848 369.386 353.568 368.591C353.295 367.795 352.89 367.167 352.352 366.705C351.814 366.242 351.144 366.011 350.341 366.011C349.53 366.011 348.848 366.242 348.295 366.705C347.75 367.167 347.337 367.795 347.057 368.591C346.784 369.386 346.648 370.292 346.648 371.307C346.648 372.322 346.784 373.227 347.057 374.023C347.337 374.818 347.75 375.447 348.295 375.909C348.848 376.364 349.53 376.591 350.341 376.591ZM362.057 380V362.545H366.75V365.591H366.932C367.25 364.508 367.784 363.689 368.534 363.136C369.284 362.576 370.148 362.295 371.125 362.295C371.367 362.295 371.629 362.311 371.909 362.341C372.189 362.371 372.436 362.413 372.648 362.466V366.761C372.42 366.693 372.106 366.633 371.705 366.58C371.303 366.527 370.936 366.5 370.602 366.5C369.89 366.5 369.254 366.655 368.693 366.966C368.14 367.269 367.701 367.693 367.375 368.239C367.057 368.784 366.898 369.413 366.898 370.125V380H362.057ZM378.67 386.545C378.057 386.545 377.481 386.496 376.943 386.398C376.413 386.307 375.973 386.189 375.625 386.045L376.716 382.432C377.284 382.606 377.795 382.701 378.25 382.716C378.712 382.731 379.11 382.625 379.443 382.398C379.784 382.17 380.061 381.784 380.273 381.239L380.557 380.5L374.295 362.545H379.386L383 375.364H383.182L386.83 362.545H391.955L385.17 381.886C384.845 382.826 384.402 383.644 383.841 384.341C383.288 385.045 382.587 385.587 381.739 385.966C380.89 386.352 379.867 386.545 378.67 386.545Z" fill="#0D0E10"/>
<path d="M52.9091 410V398.364H59.8864V399.614H54.3182V403.545H59.3636V404.795H54.3182V410H52.9091ZM64.8627 410.182C64.0748 410.182 63.3836 409.994 62.7889 409.619C62.198 409.244 61.7358 408.72 61.4025 408.045C61.073 407.371 60.9082 406.583 60.9082 405.682C60.9082 404.773 61.073 403.979 61.4025 403.301C61.7358 402.623 62.198 402.097 62.7889 401.722C63.3836 401.347 64.0748 401.159 64.8627 401.159C65.6506 401.159 66.34 401.347 66.9309 401.722C67.5256 402.097 67.9877 402.623 68.3173 403.301C68.6506 403.979 68.8173 404.773 68.8173 405.682C68.8173 406.583 68.6506 407.371 68.3173 408.045C67.9877 408.72 67.5256 409.244 66.9309 409.619C66.34 409.994 65.6506 410.182 64.8627 410.182ZM64.8627 408.977C65.4612 408.977 65.9536 408.824 66.34 408.517C66.7264 408.21 67.0123 407.807 67.198 407.307C67.3836 406.807 67.4764 406.265 67.4764 405.682C67.4764 405.098 67.3836 404.555 67.198 404.051C67.0123 403.547 66.7264 403.14 66.34 402.83C65.9536 402.519 65.4612 402.364 64.8627 402.364C64.2642 402.364 63.7718 402.519 63.3855 402.83C62.9991 403.14 62.7131 403.547 62.5275 404.051C62.3419 404.555 62.2491 405.098 62.2491 405.682C62.2491 406.265 62.3419 406.807 62.5275 407.307C62.7131 407.807 62.9991 408.21 63.3855 408.517C63.7718 408.824 64.2642 408.977 64.8627 408.977ZM70.7041 410V401.273H71.9996V402.591H72.0905C72.2496 402.159 72.5375 401.809 72.9541 401.54C73.3708 401.271 73.8405 401.136 74.3632 401.136C74.4617 401.136 74.5848 401.138 74.7326 401.142C74.8803 401.146 74.992 401.152 75.0678 401.159V402.523C75.0223 402.511 74.9182 402.494 74.7553 402.472C74.5962 402.445 74.4276 402.432 74.2496 402.432C73.8254 402.432 73.4466 402.521 73.1132 402.699C72.7837 402.873 72.5223 403.116 72.3291 403.426C72.1398 403.733 72.0451 404.083 72.0451 404.477V410H70.7041ZM80.8396 401.273V402.409H76.3169V401.273H80.8396ZM77.6351 399.182H78.976V407.5C78.976 407.879 79.0309 408.163 79.1407 408.352C79.2544 408.538 79.3983 408.663 79.5726 408.727C79.7506 408.788 79.9381 408.818 80.1351 408.818C80.2828 408.818 80.404 408.811 80.4987 408.795C80.5934 408.777 80.6691 408.761 80.726 408.75L80.9987 409.955C80.9078 409.989 80.7809 410.023 80.618 410.057C80.4551 410.095 80.2487 410.114 79.9987 410.114C79.6199 410.114 79.2487 410.032 78.8851 409.869C78.5252 409.706 78.226 409.458 77.9873 409.125C77.7525 408.792 77.6351 408.371 77.6351 407.864V399.182ZM88.1966 406.432V401.273H89.5376V410H88.1966V408.523H88.1057C87.9012 408.966 87.583 409.343 87.1512 409.653C86.7194 409.96 86.1739 410.114 85.5148 410.114C84.9694 410.114 84.4845 409.994 84.0603 409.756C83.636 409.513 83.3027 409.15 83.0603 408.665C82.8179 408.176 82.6966 407.561 82.6966 406.818V401.273H84.0376V406.727C84.0376 407.364 84.2156 407.871 84.5716 408.25C84.9315 408.629 85.3898 408.818 85.9466 408.818C86.28 408.818 86.619 408.733 86.9637 408.562C87.3122 408.392 87.6038 408.131 87.8387 407.778C88.0773 407.426 88.1966 406.977 88.1966 406.432ZM93.1744 404.75V410H91.8335V401.273H93.129V402.636H93.2426C93.4472 402.193 93.7578 401.837 94.1744 401.568C94.5911 401.295 95.129 401.159 95.7881 401.159C96.379 401.159 96.896 401.28 97.3392 401.523C97.7824 401.761 98.1271 402.125 98.3733 402.614C98.6195 403.098 98.7426 403.712 98.7426 404.455V410H97.4017V404.545C97.4017 403.86 97.2237 403.326 96.8676 402.943C96.5116 402.557 96.0229 402.364 95.4017 402.364C94.9737 402.364 94.5911 402.456 94.254 402.642C93.9206 402.828 93.6574 403.098 93.4642 403.455C93.271 403.811 93.1744 404.242 93.1744 404.75ZM103.601 410.205C103.048 410.205 102.546 410.1 102.095 409.892C101.645 409.68 101.287 409.375 101.022 408.977C100.756 408.576 100.624 408.091 100.624 407.523C100.624 407.023 100.722 406.617 100.919 406.307C101.116 405.992 101.379 405.746 101.709 405.568C102.039 405.39 102.402 405.258 102.8 405.17C103.201 405.08 103.605 405.008 104.01 404.955C104.54 404.886 104.97 404.835 105.3 404.801C105.633 404.763 105.876 404.701 106.027 404.614C106.183 404.527 106.26 404.375 106.26 404.159V404.114C106.26 403.553 106.107 403.117 105.8 402.807C105.497 402.496 105.037 402.341 104.419 402.341C103.779 402.341 103.277 402.481 102.914 402.761C102.55 403.042 102.294 403.341 102.147 403.659L100.874 403.205C101.101 402.674 101.404 402.261 101.783 401.966C102.165 401.667 102.582 401.458 103.033 401.341C103.487 401.22 103.934 401.159 104.374 401.159C104.654 401.159 104.976 401.193 105.34 401.261C105.707 401.326 106.061 401.46 106.402 401.665C106.747 401.869 107.033 402.178 107.26 402.591C107.487 403.004 107.601 403.557 107.601 404.25V410H106.26V408.818H106.192C106.101 409.008 105.95 409.21 105.737 409.426C105.525 409.642 105.243 409.826 104.891 409.977C104.539 410.129 104.109 410.205 103.601 410.205ZM103.806 409C104.336 409 104.783 408.896 105.147 408.688C105.514 408.479 105.79 408.21 105.976 407.881C106.165 407.551 106.26 407.205 106.26 406.841V405.614C106.203 405.682 106.078 405.744 105.885 405.801C105.696 405.854 105.476 405.902 105.226 405.943C104.98 405.981 104.739 406.015 104.504 406.045C104.273 406.072 104.086 406.095 103.942 406.114C103.594 406.159 103.268 406.233 102.965 406.335C102.665 406.434 102.423 406.583 102.237 406.784C102.056 406.981 101.965 407.25 101.965 407.591C101.965 408.057 102.137 408.409 102.482 408.648C102.83 408.883 103.272 409 103.806 409ZM113.684 401.273V402.409H109.161V401.273H113.684ZM110.479 399.182H111.82V407.5C111.82 407.879 111.875 408.163 111.985 408.352C112.099 408.538 112.243 408.663 112.417 408.727C112.595 408.788 112.782 408.818 112.979 408.818C113.127 408.818 113.248 408.811 113.343 408.795C113.438 408.777 113.514 408.761 113.57 408.75L113.843 409.955C113.752 409.989 113.625 410.023 113.462 410.057C113.3 410.095 113.093 410.114 112.843 410.114C112.464 410.114 112.093 410.032 111.729 409.869C111.37 409.706 111.07 409.458 110.832 409.125C110.597 408.792 110.479 408.371 110.479 407.864V399.182ZM119.106 410.182C118.265 410.182 117.54 409.996 116.93 409.625C116.324 409.25 115.856 408.727 115.527 408.057C115.201 407.383 115.038 406.598 115.038 405.705C115.038 404.811 115.201 404.023 115.527 403.341C115.856 402.655 116.315 402.121 116.902 401.739C117.493 401.352 118.182 401.159 118.97 401.159C119.425 401.159 119.873 401.235 120.317 401.386C120.76 401.538 121.163 401.784 121.527 402.125C121.89 402.462 122.18 402.909 122.396 403.466C122.612 404.023 122.72 404.708 122.72 405.523V406.091H115.993V404.932H121.356C121.356 404.439 121.258 404 121.061 403.614C120.868 403.227 120.591 402.922 120.231 402.699C119.875 402.475 119.455 402.364 118.97 402.364C118.436 402.364 117.974 402.496 117.584 402.761C117.197 403.023 116.9 403.364 116.692 403.784C116.483 404.205 116.379 404.655 116.379 405.136V405.909C116.379 406.568 116.493 407.127 116.72 407.585C116.951 408.04 117.271 408.386 117.68 408.625C118.089 408.86 118.565 408.977 119.106 408.977C119.459 408.977 119.777 408.928 120.061 408.83C120.349 408.727 120.597 408.576 120.805 408.375C121.014 408.17 121.175 407.917 121.288 407.614L122.584 407.977C122.447 408.417 122.218 408.803 121.896 409.136C121.574 409.466 121.176 409.723 120.703 409.909C120.229 410.091 119.697 410.182 119.106 410.182ZM125.941 398.364V410H124.6V398.364H125.941ZM129.1 413.273C128.873 413.273 128.67 413.254 128.492 413.216C128.314 413.182 128.191 413.148 128.123 413.114L128.464 411.932C128.79 412.015 129.078 412.045 129.328 412.023C129.578 412 129.799 411.888 129.992 411.688C130.189 411.491 130.369 411.17 130.532 410.727L130.782 410.045L127.555 401.273H129.009L131.418 408.227H131.509L133.918 401.273H135.373L131.668 411.273C131.502 411.723 131.295 412.097 131.049 412.392C130.803 412.691 130.517 412.913 130.191 413.057C129.869 413.201 129.506 413.273 129.1 413.273ZM138.436 408.409L138.345 409.023C138.281 409.455 138.182 409.917 138.05 410.409C137.921 410.902 137.786 411.366 137.646 411.801C137.506 412.237 137.391 412.583 137.3 412.841H136.277C136.326 412.598 136.391 412.278 136.47 411.881C136.55 411.483 136.629 411.038 136.709 410.545C136.792 410.057 136.86 409.557 136.913 409.045L136.981 408.409H138.436ZM145.1 410V401.273H146.441V410H145.1ZM145.782 399.818C145.521 399.818 145.295 399.729 145.106 399.551C144.92 399.373 144.828 399.159 144.828 398.909C144.828 398.659 144.92 398.445 145.106 398.267C145.295 398.089 145.521 398 145.782 398C146.044 398 146.267 398.089 146.453 398.267C146.642 398.445 146.737 398.659 146.737 398.909C146.737 399.159 146.642 399.373 146.453 399.551C146.267 399.729 146.044 399.818 145.782 399.818ZM152.533 401.273V402.409H148.01V401.273H152.533ZM149.328 399.182H150.669V407.5C150.669 407.879 150.724 408.163 150.834 408.352C150.948 408.538 151.091 408.663 151.266 408.727C151.444 408.788 151.631 408.818 151.828 408.818C151.976 408.818 152.097 408.811 152.192 408.795C152.287 408.777 152.362 408.761 152.419 408.75L152.692 409.955C152.601 409.989 152.474 410.023 152.311 410.057C152.148 410.095 151.942 410.114 151.692 410.114C151.313 410.114 150.942 410.032 150.578 409.869C150.218 409.706 149.919 409.458 149.68 409.125C149.446 408.792 149.328 408.371 149.328 407.864V399.182ZM156.025 398.364V399.386C156.025 399.697 155.968 400.028 155.854 400.381C155.744 400.729 155.582 401.068 155.366 401.398C155.154 401.723 154.896 402.008 154.593 402.25L153.866 401.659C154.104 401.318 154.311 400.964 154.485 400.597C154.663 400.225 154.752 399.83 154.752 399.409V398.364H156.025ZM162.583 403.227L161.379 403.568C161.303 403.367 161.191 403.172 161.044 402.983C160.9 402.79 160.703 402.631 160.453 402.506C160.203 402.381 159.883 402.318 159.493 402.318C158.958 402.318 158.513 402.441 158.157 402.688C157.805 402.93 157.629 403.239 157.629 403.614C157.629 403.947 157.75 404.21 157.993 404.403C158.235 404.597 158.614 404.758 159.129 404.886L160.424 405.205C161.205 405.394 161.786 405.684 162.169 406.074C162.551 406.46 162.743 406.958 162.743 407.568C162.743 408.068 162.599 408.515 162.311 408.909C162.027 409.303 161.629 409.614 161.118 409.841C160.606 410.068 160.011 410.182 159.333 410.182C158.443 410.182 157.707 409.989 157.123 409.602C156.54 409.216 156.171 408.652 156.015 407.909L157.288 407.591C157.409 408.061 157.638 408.413 157.976 408.648C158.316 408.883 158.761 409 159.311 409C159.936 409 160.432 408.867 160.799 408.602C161.171 408.333 161.356 408.011 161.356 407.636C161.356 407.333 161.25 407.08 161.038 406.875C160.826 406.667 160.5 406.511 160.061 406.409L158.606 406.068C157.807 405.879 157.22 405.585 156.845 405.188C156.474 404.786 156.288 404.284 156.288 403.682C156.288 403.189 156.426 402.754 156.703 402.375C156.983 401.996 157.364 401.699 157.845 401.483C158.33 401.267 158.879 401.159 159.493 401.159C160.356 401.159 161.034 401.348 161.527 401.727C162.023 402.106 162.375 402.606 162.583 403.227ZM172.6 410.182C171.759 410.182 171.034 409.996 170.424 409.625C169.818 409.25 169.35 408.727 169.021 408.057C168.695 407.383 168.532 406.598 168.532 405.705C168.532 404.811 168.695 404.023 169.021 403.341C169.35 402.655 169.808 402.121 170.396 401.739C170.986 401.352 171.676 401.159 172.464 401.159C172.918 401.159 173.367 401.235 173.81 401.386C174.254 401.538 174.657 401.784 175.021 402.125C175.384 402.462 175.674 402.909 175.89 403.466C176.106 404.023 176.214 404.708 176.214 405.523V406.091H169.486V404.932H174.85C174.85 404.439 174.752 404 174.555 403.614C174.361 403.227 174.085 402.922 173.725 402.699C173.369 402.475 172.949 402.364 172.464 402.364C171.93 402.364 171.468 402.496 171.077 402.761C170.691 403.023 170.394 403.364 170.185 403.784C169.977 404.205 169.873 404.655 169.873 405.136V405.909C169.873 406.568 169.986 407.127 170.214 407.585C170.445 408.04 170.765 408.386 171.174 408.625C171.583 408.86 172.058 408.977 172.6 408.977C172.952 408.977 173.271 408.928 173.555 408.83C173.843 408.727 174.091 408.576 174.299 408.375C174.507 408.17 174.668 407.917 174.782 407.614L176.077 407.977C175.941 408.417 175.712 408.803 175.39 409.136C175.068 409.466 174.67 409.723 174.197 409.909C173.723 410.091 173.191 410.182 172.6 410.182ZM180.662 410.205C180.109 410.205 179.607 410.1 179.156 409.892C178.705 409.68 178.347 409.375 178.082 408.977C177.817 408.576 177.684 408.091 177.684 407.523C177.684 407.023 177.783 406.617 177.98 406.307C178.177 405.992 178.44 405.746 178.77 405.568C179.099 405.39 179.463 405.258 179.861 405.17C180.262 405.08 180.665 405.008 181.071 404.955C181.601 404.886 182.031 404.835 182.361 404.801C182.694 404.763 182.936 404.701 183.088 404.614C183.243 404.527 183.321 404.375 183.321 404.159V404.114C183.321 403.553 183.167 403.117 182.861 402.807C182.558 402.496 182.097 402.341 181.48 402.341C180.84 402.341 180.338 402.481 179.974 402.761C179.611 403.042 179.355 403.341 179.207 403.659L177.934 403.205C178.162 402.674 178.465 402.261 178.844 401.966C179.226 401.667 179.643 401.458 180.094 401.341C180.548 401.22 180.995 401.159 181.434 401.159C181.715 401.159 182.037 401.193 182.4 401.261C182.768 401.326 183.122 401.46 183.463 401.665C183.808 401.869 184.094 402.178 184.321 402.591C184.548 403.004 184.662 403.557 184.662 404.25V410H183.321V408.818H183.253C183.162 409.008 183.01 409.21 182.798 409.426C182.586 409.642 182.304 409.826 181.951 409.977C181.599 410.129 181.169 410.205 180.662 410.205ZM180.866 409C181.397 409 181.844 408.896 182.207 408.688C182.575 408.479 182.851 408.21 183.037 407.881C183.226 407.551 183.321 407.205 183.321 406.841V405.614C183.264 405.682 183.139 405.744 182.946 405.801C182.756 405.854 182.537 405.902 182.287 405.943C182.04 405.981 181.8 406.015 181.565 406.045C181.334 406.072 181.147 406.095 181.003 406.114C180.654 406.159 180.328 406.233 180.025 406.335C179.726 406.434 179.484 406.583 179.298 406.784C179.116 406.981 179.025 407.25 179.025 407.591C179.025 408.057 179.198 408.409 179.542 408.648C179.891 408.883 180.332 409 180.866 409ZM193.131 403.227L191.926 403.568C191.851 403.367 191.739 403.172 191.591 402.983C191.447 402.79 191.25 402.631 191 402.506C190.75 402.381 190.43 402.318 190.04 402.318C189.506 402.318 189.061 402.441 188.705 402.688C188.353 402.93 188.176 403.239 188.176 403.614C188.176 403.947 188.298 404.21 188.54 404.403C188.782 404.597 189.161 404.758 189.676 404.886L190.972 405.205C191.752 405.394 192.334 405.684 192.716 406.074C193.099 406.46 193.29 406.958 193.29 407.568C193.29 408.068 193.146 408.515 192.858 408.909C192.574 409.303 192.176 409.614 191.665 409.841C191.154 410.068 190.559 410.182 189.881 410.182C188.991 410.182 188.254 409.989 187.671 409.602C187.087 409.216 186.718 408.652 186.563 407.909L187.836 407.591C187.957 408.061 188.186 408.413 188.523 408.648C188.864 408.883 189.309 409 189.858 409C190.483 409 190.979 408.867 191.347 408.602C191.718 408.333 191.904 408.011 191.904 407.636C191.904 407.333 191.798 407.08 191.586 406.875C191.373 406.667 191.048 406.511 190.608 406.409L189.154 406.068C188.354 405.879 187.767 405.585 187.392 405.188C187.021 404.786 186.836 404.284 186.836 403.682C186.836 403.189 186.974 402.754 187.25 402.375C187.531 401.996 187.911 401.699 188.392 401.483C188.877 401.267 189.426 401.159 190.04 401.159C190.904 401.159 191.582 401.348 192.074 401.727C192.57 402.106 192.923 402.606 193.131 403.227ZM196.012 413.273C195.785 413.273 195.582 413.254 195.404 413.216C195.226 413.182 195.103 413.148 195.035 413.114L195.376 411.932C195.702 412.015 195.989 412.045 196.239 412.023C196.489 412 196.711 411.888 196.904 411.688C197.101 411.491 197.281 411.17 197.444 410.727L197.694 410.045L194.467 401.273H195.921L198.33 408.227H198.421L200.83 401.273H202.285L198.58 411.273C198.414 411.723 198.207 412.097 197.961 412.392C197.715 412.691 197.429 412.913 197.103 413.057C196.781 413.201 196.417 413.273 196.012 413.273ZM212.03 401.273V402.409H207.508V401.273H212.03ZM208.826 399.182H210.167V407.5C210.167 407.879 210.222 408.163 210.331 408.352C210.445 408.538 210.589 408.663 210.763 408.727C210.941 408.788 211.129 408.818 211.326 408.818C211.473 408.818 211.595 408.811 211.689 408.795C211.784 408.777 211.86 408.761 211.917 408.75L212.189 409.955C212.098 409.989 211.972 410.023 211.809 410.057C211.646 410.095 211.439 410.114 211.189 410.114C210.811 410.114 210.439 410.032 210.076 409.869C209.716 409.706 209.417 409.458 209.178 409.125C208.943 408.792 208.826 408.371 208.826 407.864V399.182ZM217.339 410.182C216.551 410.182 215.86 409.994 215.265 409.619C214.674 409.244 214.212 408.72 213.879 408.045C213.549 407.371 213.384 406.583 213.384 405.682C213.384 404.773 213.549 403.979 213.879 403.301C214.212 402.623 214.674 402.097 215.265 401.722C215.86 401.347 216.551 401.159 217.339 401.159C218.127 401.159 218.816 401.347 219.407 401.722C220.002 402.097 220.464 402.623 220.794 403.301C221.127 403.979 221.294 404.773 221.294 405.682C221.294 406.583 221.127 407.371 220.794 408.045C220.464 408.72 220.002 409.244 219.407 409.619C218.816 409.994 218.127 410.182 217.339 410.182ZM217.339 408.977C217.937 408.977 218.43 408.824 218.816 408.517C219.203 408.21 219.489 407.807 219.674 407.307C219.86 406.807 219.953 406.265 219.953 405.682C219.953 405.098 219.86 404.555 219.674 404.051C219.489 403.547 219.203 403.14 218.816 402.83C218.43 402.519 217.937 402.364 217.339 402.364C216.74 402.364 216.248 402.519 215.862 402.83C215.475 403.14 215.189 403.547 215.004 404.051C214.818 404.555 214.725 405.098 214.725 405.682C214.725 406.265 214.818 406.807 215.004 407.307C215.189 407.807 215.475 408.21 215.862 408.517C216.248 408.824 216.74 408.977 217.339 408.977ZM231.066 410.182C230.248 410.182 229.543 409.989 228.952 409.602C228.361 409.216 227.907 408.684 227.589 408.006C227.27 407.328 227.111 406.553 227.111 405.682C227.111 404.795 227.274 404.013 227.6 403.335C227.929 402.653 228.388 402.121 228.975 401.739C229.566 401.352 230.255 401.159 231.043 401.159C231.657 401.159 232.21 401.273 232.702 401.5C233.195 401.727 233.598 402.045 233.912 402.455C234.227 402.864 234.422 403.341 234.498 403.886H233.157C233.054 403.489 232.827 403.136 232.475 402.83C232.126 402.519 231.657 402.364 231.066 402.364C230.543 402.364 230.085 402.5 229.691 402.773C229.301 403.042 228.996 403.422 228.776 403.915C228.56 404.403 228.452 404.977 228.452 405.636C228.452 406.311 228.558 406.898 228.77 407.398C228.986 407.898 229.289 408.286 229.679 408.562C230.073 408.839 230.536 408.977 231.066 408.977C231.414 408.977 231.731 408.917 232.015 408.795C232.299 408.674 232.539 408.5 232.736 408.273C232.933 408.045 233.073 407.773 233.157 407.455H234.498C234.422 407.97 234.234 408.434 233.935 408.847C233.64 409.256 233.248 409.581 232.759 409.824C232.274 410.062 231.71 410.182 231.066 410.182ZM236.298 410V401.273H237.593V402.591H237.684C237.843 402.159 238.131 401.809 238.548 401.54C238.965 401.271 239.434 401.136 239.957 401.136C240.055 401.136 240.179 401.138 240.326 401.142C240.474 401.146 240.586 401.152 240.662 401.159V402.523C240.616 402.511 240.512 402.494 240.349 402.472C240.19 402.445 240.021 402.432 239.843 402.432C239.419 402.432 239.04 402.521 238.707 402.699C238.377 402.873 238.116 403.116 237.923 403.426C237.733 403.733 237.639 404.083 237.639 404.477V410H236.298ZM245.484 410.182C244.644 410.182 243.918 409.996 243.308 409.625C242.702 409.25 242.234 408.727 241.905 408.057C241.579 407.383 241.416 406.598 241.416 405.705C241.416 404.811 241.579 404.023 241.905 403.341C242.234 402.655 242.693 402.121 243.28 401.739C243.871 401.352 244.56 401.159 245.348 401.159C245.803 401.159 246.252 401.235 246.695 401.386C247.138 401.538 247.541 401.784 247.905 402.125C248.269 402.462 248.558 402.909 248.774 403.466C248.99 404.023 249.098 404.708 249.098 405.523V406.091H242.371V404.932H247.734C247.734 404.439 247.636 404 247.439 403.614C247.246 403.227 246.969 402.922 246.609 402.699C246.253 402.475 245.833 402.364 245.348 402.364C244.814 402.364 244.352 402.496 243.962 402.761C243.575 403.023 243.278 403.364 243.07 403.784C242.861 404.205 242.757 404.655 242.757 405.136V405.909C242.757 406.568 242.871 407.127 243.098 407.585C243.329 408.04 243.649 408.386 244.058 408.625C244.467 408.86 244.943 408.977 245.484 408.977C245.837 408.977 246.155 408.928 246.439 408.83C246.727 408.727 246.975 408.576 247.183 408.375C247.392 408.17 247.553 407.917 247.666 407.614L248.962 407.977C248.825 408.417 248.596 408.803 248.274 409.136C247.952 409.466 247.555 409.723 247.081 409.909C246.608 410.091 246.075 410.182 245.484 410.182ZM253.546 410.205C252.993 410.205 252.491 410.1 252.04 409.892C251.59 409.68 251.232 409.375 250.967 408.977C250.701 408.576 250.569 408.091 250.569 407.523C250.569 407.023 250.667 406.617 250.864 406.307C251.061 405.992 251.324 405.746 251.654 405.568C251.984 405.39 252.347 405.258 252.745 405.17C253.146 405.08 253.55 405.008 253.955 404.955C254.485 404.886 254.915 404.835 255.245 404.801C255.578 404.763 255.821 404.701 255.972 404.614C256.128 404.527 256.205 404.375 256.205 404.159V404.114C256.205 403.553 256.052 403.117 255.745 402.807C255.442 402.496 254.982 402.341 254.364 402.341C253.724 402.341 253.222 402.481 252.859 402.761C252.495 403.042 252.239 403.341 252.092 403.659L250.819 403.205C251.046 402.674 251.349 402.261 251.728 401.966C252.11 401.667 252.527 401.458 252.978 401.341C253.432 401.22 253.879 401.159 254.319 401.159C254.599 401.159 254.921 401.193 255.285 401.261C255.652 401.326 256.006 401.46 256.347 401.665C256.692 401.869 256.978 402.178 257.205 402.591C257.432 403.004 257.546 403.557 257.546 404.25V410H256.205V408.818H256.137C256.046 409.008 255.895 409.21 255.682 409.426C255.47 409.642 255.188 409.826 254.836 409.977C254.484 410.129 254.054 410.205 253.546 410.205ZM253.751 409C254.281 409 254.728 408.896 255.092 408.688C255.459 408.479 255.735 408.21 255.921 407.881C256.11 407.551 256.205 407.205 256.205 406.841V405.614C256.148 405.682 256.023 405.744 255.83 405.801C255.641 405.854 255.421 405.902 255.171 405.943C254.925 405.981 254.684 406.015 254.449 406.045C254.218 406.072 254.031 406.095 253.887 406.114C253.539 406.159 253.213 406.233 252.91 406.335C252.61 406.434 252.368 406.583 252.182 406.784C252.001 406.981 251.91 407.25 251.91 407.591C251.91 408.057 252.082 408.409 252.427 408.648C252.775 408.883 253.217 409 253.751 409ZM263.629 401.273V402.409H259.106V401.273H263.629ZM260.424 399.182H261.765V407.5C261.765 407.879 261.82 408.163 261.93 408.352C262.044 408.538 262.188 408.663 262.362 408.727C262.54 408.788 262.727 408.818 262.924 408.818C263.072 408.818 263.193 408.811 263.288 408.795C263.383 408.777 263.459 408.761 263.515 408.75L263.788 409.955C263.697 409.989 263.57 410.023 263.407 410.057C263.245 410.095 263.038 410.114 262.788 410.114C262.409 410.114 262.038 410.032 261.674 409.869C261.315 409.706 261.015 409.458 260.777 409.125C260.542 408.792 260.424 408.371 260.424 407.864V399.182ZM269.051 410.182C268.21 410.182 267.485 409.996 266.875 409.625C266.269 409.25 265.801 408.727 265.472 408.057C265.146 407.383 264.983 406.598 264.983 405.705C264.983 404.811 265.146 404.023 265.472 403.341C265.801 402.655 266.26 402.121 266.847 401.739C267.438 401.352 268.127 401.159 268.915 401.159C269.37 401.159 269.818 401.235 270.262 401.386C270.705 401.538 271.108 401.784 271.472 402.125C271.835 402.462 272.125 402.909 272.341 403.466C272.557 404.023 272.665 404.708 272.665 405.523V406.091H265.938V404.932H271.301C271.301 404.439 271.203 404 271.006 403.614C270.813 403.227 270.536 402.922 270.176 402.699C269.82 402.475 269.4 402.364 268.915 402.364C268.381 402.364 267.919 402.496 267.529 402.761C267.142 403.023 266.845 403.364 266.637 403.784C266.428 404.205 266.324 404.655 266.324 405.136V405.909C266.324 406.568 266.438 407.127 266.665 407.585C266.896 408.04 267.216 408.386 267.625 408.625C268.034 408.86 268.51 408.977 269.051 408.977C269.404 408.977 269.722 408.928 270.006 408.83C270.294 408.727 270.542 408.576 270.75 408.375C270.959 408.17 271.12 407.917 271.233 407.614L272.529 407.977C272.392 408.417 272.163 408.803 271.841 409.136C271.519 409.466 271.121 409.723 270.648 409.909C270.174 410.091 269.642 410.182 269.051 410.182ZM280.226 404.75V410H278.885V401.273H280.18V402.636H280.294C280.498 402.193 280.809 401.837 281.226 401.568C281.642 401.295 282.18 401.159 282.839 401.159C283.43 401.159 283.947 401.28 284.39 401.523C284.834 401.761 285.178 402.125 285.425 402.614C285.671 403.098 285.794 403.712 285.794 404.455V410H284.453V404.545C284.453 403.86 284.275 403.326 283.919 402.943C283.563 402.557 283.074 402.364 282.453 402.364C282.025 402.364 281.642 402.456 281.305 402.642C280.972 402.828 280.709 403.098 280.515 403.455C280.322 403.811 280.226 404.242 280.226 404.75ZM291.743 410.182C290.902 410.182 290.177 409.996 289.567 409.625C288.961 409.25 288.493 408.727 288.164 408.057C287.838 407.383 287.675 406.598 287.675 405.705C287.675 404.811 287.838 404.023 288.164 403.341C288.493 402.655 288.952 402.121 289.539 401.739C290.13 401.352 290.819 401.159 291.607 401.159C292.061 401.159 292.51 401.235 292.953 401.386C293.397 401.538 293.8 401.784 294.164 402.125C294.527 402.462 294.817 402.909 295.033 403.466C295.249 404.023 295.357 404.708 295.357 405.523V406.091H288.63V404.932H293.993C293.993 404.439 293.895 404 293.698 403.614C293.505 403.227 293.228 402.922 292.868 402.699C292.512 402.475 292.092 402.364 291.607 402.364C291.073 402.364 290.611 402.496 290.221 402.761C289.834 403.023 289.537 403.364 289.328 403.784C289.12 404.205 289.016 404.655 289.016 405.136V405.909C289.016 406.568 289.13 407.127 289.357 407.585C289.588 408.04 289.908 408.386 290.317 408.625C290.726 408.86 291.202 408.977 291.743 408.977C292.096 408.977 292.414 408.928 292.698 408.83C292.986 408.727 293.234 408.576 293.442 408.375C293.65 408.17 293.811 407.917 293.925 407.614L295.221 407.977C295.084 408.417 294.855 408.803 294.533 409.136C294.211 409.466 293.813 409.723 293.34 409.909C292.866 410.091 292.334 410.182 291.743 410.182ZM299.214 410L296.555 401.273H297.964L299.85 407.955H299.941L301.805 401.273H303.237L305.078 407.932H305.168L307.055 401.273H308.464L305.805 410H304.487L302.578 403.295H302.441L300.532 410H299.214ZM317.962 410.182C317.174 410.182 316.483 409.994 315.888 409.619C315.297 409.244 314.835 408.72 314.502 408.045C314.172 407.371 314.008 406.583 314.008 405.682C314.008 404.773 314.172 403.979 314.502 403.301C314.835 402.623 315.297 402.097 315.888 401.722C316.483 401.347 317.174 401.159 317.962 401.159C318.75 401.159 319.439 401.347 320.03 401.722C320.625 402.097 321.087 402.623 321.417 403.301C321.75 403.979 321.917 404.773 321.917 405.682C321.917 406.583 321.75 407.371 321.417 408.045C321.087 408.72 320.625 409.244 320.03 409.619C319.439 409.994 318.75 410.182 317.962 410.182ZM317.962 408.977C318.561 408.977 319.053 408.824 319.439 408.517C319.826 408.21 320.112 407.807 320.297 407.307C320.483 406.807 320.576 406.265 320.576 405.682C320.576 405.098 320.483 404.555 320.297 404.051C320.112 403.547 319.826 403.14 319.439 402.83C319.053 402.519 318.561 402.364 317.962 402.364C317.364 402.364 316.871 402.519 316.485 402.83C316.098 403.14 315.812 403.547 315.627 404.051C315.441 404.555 315.348 405.098 315.348 405.682C315.348 406.265 315.441 406.807 315.627 407.307C315.812 407.807 316.098 408.21 316.485 408.517C316.871 408.824 317.364 408.977 317.962 408.977ZM325.144 404.75V410H323.804V401.273H325.099V402.636H325.213C325.417 402.193 325.728 401.837 326.144 401.568C326.561 401.295 327.099 401.159 327.758 401.159C328.349 401.159 328.866 401.28 329.309 401.523C329.752 401.761 330.097 402.125 330.343 402.614C330.59 403.098 330.713 403.712 330.713 404.455V410H329.372V404.545C329.372 403.86 329.194 403.326 328.838 402.943C328.482 402.557 327.993 402.364 327.372 402.364C326.944 402.364 326.561 402.456 326.224 402.642C325.891 402.828 325.627 403.098 325.434 403.455C325.241 403.811 325.144 404.242 325.144 404.75ZM336.662 410.182C335.821 410.182 335.096 409.996 334.486 409.625C333.88 409.25 333.412 408.727 333.082 408.057C332.757 407.383 332.594 406.598 332.594 405.705C332.594 404.811 332.757 404.023 333.082 403.341C333.412 402.655 333.87 402.121 334.457 401.739C335.048 401.352 335.738 401.159 336.526 401.159C336.98 401.159 337.429 401.235 337.872 401.386C338.315 401.538 338.719 401.784 339.082 402.125C339.446 402.462 339.736 402.909 339.952 403.466C340.168 404.023 340.276 404.708 340.276 405.523V406.091H333.548V404.932H338.912C338.912 404.439 338.814 404 338.617 403.614C338.423 403.227 338.147 402.922 337.787 402.699C337.431 402.475 337.01 402.364 336.526 402.364C335.992 402.364 335.529 402.496 335.139 402.761C334.753 403.023 334.456 403.364 334.247 403.784C334.039 404.205 333.935 404.655 333.935 405.136V405.909C333.935 406.568 334.048 407.127 334.276 407.585C334.507 408.04 334.827 408.386 335.236 408.625C335.645 408.86 336.12 408.977 336.662 408.977C337.014 408.977 337.332 408.928 337.617 408.83C337.904 408.727 338.153 408.576 338.361 408.375C338.569 408.17 338.73 407.917 338.844 407.614L340.139 407.977C340.003 408.417 339.774 408.803 339.452 409.136C339.13 409.466 338.732 409.723 338.259 409.909C337.785 410.091 337.253 410.182 336.662 410.182Z" fill="#0D0E10"/>
</svg>
