<svg width="22" height="22" viewBox="0 0 22 22" fill="none" xmlns="http://www.w3.org/2000/svg">
<path d="M7.66667 21H14.3333M7.66667 21H5.44444C2.98984 21 1 18.9323 1 16.3818V9.11688C1 7.50197 1.81179 6.00438 3.14088 5.16737L8.69643 1.66873C10.1123 0.77709 11.8877 0.77709 13.3036 1.66873L18.8591 5.16737C20.1882 6.00438 21 7.50197 21 9.11688V16.3818C21 18.9323 19.0101 21 16.5556 21H14.3333H7.66667ZM7.66667 21V16.3818C7.66667 14.4688 9.159 12.9181 11 12.9181C12.841 12.9181 14.3333 14.4688 14.3333 16.3818V21H7.66667Z" stroke="#2D3648" stroke-width="1.5" stroke-linecap="round" stroke-linejoin="round"/>
</svg>
