<svg width="34" height="34" viewBox="0 0 34 34" fill="none" xmlns="http://www.w3.org/2000/svg">
<path d="M17 1C8.16344 1 1 8.16344 1 17C1 25.8365 8.16344 33 17 33C25.8365 33 33 25.8365 33 17C33 8.16344 25.8365 1 17 1Z" stroke="#2D3648" stroke-width="1.5" stroke-linecap="round" stroke-linejoin="round"/>
<path d="M4.63354 27.1531C4.63354 27.1531 8.19998 22.6 16.9999 22.6C25.7999 22.6 29.3665 27.1531 29.3665 27.1531" stroke="#2D3648" stroke-width="1.5" stroke-linecap="round" stroke-linejoin="round"/>
<path d="M17 19C19.651 19 21.8 16.8511 21.8 14.2C21.8 11.5491 19.651 9.40002 17 9.40002C14.3489 9.40002 12.2 11.5491 12.2 14.2C12.2 16.8511 14.3489 19 17 19Z" stroke="#2D3648" stroke-width="1.5" stroke-linecap="round" stroke-linejoin="round"/>
</svg>
