<svg width="213" height="48" viewBox="0 0 213 48" fill="none" xmlns="http://www.w3.org/2000/svg">
<path d="M9.09506 0H1.86619C1.06797 0 0.591481 0.889217 1.03357 1.55384L11.6248 17.4763C8.78885 9.9239 9.23193 4.89076 10.3074 2.13452C10.637 1.28989 10.0017 0 9.09506 0Z" fill="#A9B5CC"/>
<path d="M18.2676 27.4114L31.106 46.7494C31.5008 47.3441 32.3737 47.3455 32.7705 46.752L37.7582 39.2905C38.269 38.5265 37.5407 37.4458 36.6221 37.4732C29.103 37.6979 21.5123 31.0957 18.2676 27.4114Z" fill="#A9B5CC"/>
<path d="M37.6039 33.7596C17.2992 30.0507 14.6669 11.5278 14.6379 3.4396C14.6308 1.45541 16.2886 0 18.2728 0H22.2716C23.3761 0 24.2682 0.895045 24.2715 1.99961C24.3001 11.6762 25.159 23.8622 44.6806 26.274C45.4354 26.3672 45.8518 27.2258 45.427 27.8567L43.1139 31.293C41.8925 33.1074 39.7555 34.1527 37.6039 33.7596Z" fill="#8198C6"/>
<path d="M29.9049 2.23918C28.1349 9.28024 33.0203 20.9064 45.301 22.8312C47.3045 23.1452 49.2256 22.0878 50.3581 20.4055L52.3085 17.508C52.7302 16.8816 51.9641 15.7987 51.2095 15.7694C44.8063 15.5208 35.1875 7.13962 31.871 2.14581C31.3782 1.40368 30.1221 1.37518 29.9049 2.23918Z" fill="#8198C6"/>
<path d="M52.3574 0H62.6446C63.2242 0 63.57 0.645747 63.2487 1.12811L57.5468 9.69053C55.6168 12.5886 51.6872 13.3444 48.82 11.3689C43.7807 7.89685 46.2378 0 52.3574 0Z" fill="#2D3648"/>
<path d="M76.8 17.328C77.5253 16.8373 78.3893 16.4533 79.392 16.176C80.3947 15.8987 81.2053 15.76 81.824 15.76C82.4427 15.76 82.8373 15.76 83.008 15.76V16.08C82.0053 16.1227 81.0667 16.3253 80.192 16.688C79.3173 17.0293 78.592 17.4347 78.016 17.904C77.4613 18.352 76.9173 18.96 76.384 19.728C75.8507 20.4747 75.4347 21.1147 75.136 21.648C74.8587 22.1813 74.528 22.864 74.144 23.696L65.248 43.152C64.4587 44.88 64.064 45.9787 64.064 46.448H63.776L54.784 25.936C54.4853 25.2533 54.0693 24.752 53.536 24.432C53.024 24.0907 52.5013 23.92 51.968 23.92H51.712V23.6H58.912V23.92H58.624C57.984 23.92 57.5573 24.2187 57.344 24.816C57.3013 24.944 57.28 25.0933 57.28 25.264C57.28 25.4347 57.3333 25.648 57.44 25.904L64.128 42.672L72.064 23.696C73.3227 20.7307 74.9013 18.608 76.8 17.328ZM77.3048 45.68C77.8594 45.68 78.3288 45.488 78.7128 45.104C79.1181 44.6987 79.3314 44.2187 79.3528 43.664V25.904C79.3314 25.3493 79.1181 24.88 78.7128 24.496C78.3288 24.112 77.8594 23.92 77.3048 23.92H76.8888V23.6H83.8968V23.92H83.4808C82.9261 23.92 82.4461 24.112 82.0408 24.496C81.6568 24.88 81.4541 25.3493 81.4328 25.904V43.664C81.4328 44.2187 81.6354 44.6987 82.0408 45.104C82.4461 45.488 82.9261 45.68 83.4808 45.68H83.8968V46H76.8888V45.68H77.3048ZM108.693 45.68H108.949V46H101.749V45.68H102.037C102.485 45.68 102.816 45.5413 103.029 45.264C103.264 44.9653 103.381 44.688 103.381 44.432C103.381 44.176 103.339 43.92 103.253 43.664L101.205 38.224H92.5653L90.4213 43.696C90.3359 43.952 90.2933 44.208 90.2933 44.464C90.2933 44.6987 90.3999 44.9653 90.6133 45.264C90.8479 45.5413 91.1893 45.68 91.6373 45.68H91.9253V46H85.4932V45.68H85.7812C86.3146 45.68 86.8373 45.5093 87.3493 45.168C87.8613 44.8267 88.2773 44.3253 88.5973 43.664L95.8293 26.448C96.6186 24.72 97.0133 23.6213 97.0133 23.152H97.3013L105.877 43.664C106.176 44.3253 106.581 44.8267 107.093 45.168C107.605 45.5093 108.139 45.68 108.693 45.68ZM92.9493 37.264H100.821L96.9813 26.992L92.9493 37.264ZM125.161 26.448C125.161 25.936 124.979 25.4987 124.617 25.136C124.254 24.752 123.827 24.5493 123.337 24.528H117.257V43.696C117.278 44.2507 117.481 44.72 117.865 45.104C118.27 45.488 118.75 45.68 119.305 45.68H119.721V46H112.713V45.68H113.129C113.683 45.68 114.153 45.488 114.536 45.104C114.942 44.72 115.155 44.2613 115.177 43.728V24.528H109.097C108.585 24.5493 108.147 24.752 107.785 25.136C107.443 25.4987 107.273 25.936 107.273 26.448V26.992L106.953 27.024V22.992C107.273 23.12 107.827 23.248 108.617 23.376C109.406 23.504 110.131 23.568 110.793 23.568H121.609C122.654 23.568 123.518 23.4933 124.201 23.344C124.905 23.1733 125.331 23.056 125.481 22.992V27.024L125.161 26.992V26.448ZM129.985 26.384C132.268 24.2293 135.223 23.152 138.849 23.152C142.497 23.152 145.463 24.2293 147.745 26.384C150.028 28.5173 151.169 31.3227 151.169 34.8C151.169 38.2773 150.028 41.0933 147.745 43.248C145.463 45.3813 142.497 46.448 138.849 46.448C135.223 46.448 132.268 45.3813 129.985 43.248C127.703 41.0933 126.561 38.2773 126.561 34.8C126.561 31.3227 127.703 28.5173 129.985 26.384ZM131.713 42.544C133.527 44.5067 135.905 45.488 138.849 45.488C141.793 45.488 144.161 44.5067 145.953 42.544C147.767 40.5813 148.673 38 148.673 34.8C148.673 31.6 147.767 29.0187 145.953 27.056C144.161 25.0933 141.793 24.112 138.849 24.112C135.905 24.112 133.527 25.0933 131.713 27.056C129.921 29.0187 129.025 31.6 129.025 34.8C129.025 38 129.921 40.5813 131.713 42.544ZM160.293 24.592H158.245V43.664C158.245 44.2187 158.437 44.6987 158.821 45.104C159.227 45.488 159.717 45.68 160.293 45.68H160.677L160.709 46H153.701V45.68H154.117C154.672 45.68 155.141 45.488 155.525 45.104C155.931 44.72 156.144 44.2507 156.165 43.696V25.936C156.144 25.3813 155.931 24.912 155.525 24.528C155.141 24.1227 154.672 23.92 154.117 23.92H153.701V23.6H162.341C164.283 23.6 165.808 24.144 166.917 25.232C168.027 26.2987 168.581 27.696 168.581 29.424C168.581 31.1307 168.048 32.6133 166.981 33.872C165.936 35.1093 164.656 35.728 163.141 35.728C163.461 35.8773 163.835 36.176 164.261 36.624C164.709 37.0507 165.104 37.4987 165.445 37.968C167.28 40.592 168.475 42.2133 169.029 42.832C169.584 43.4293 169.979 43.8453 170.213 44.08C170.448 44.2933 170.704 44.5067 170.981 44.72C171.259 44.9333 171.536 45.104 171.813 45.232C172.432 45.5307 173.093 45.68 173.797 45.68V46H172.037C171.12 46 170.267 45.84 169.477 45.52C168.688 45.1787 168.091 44.8373 167.685 44.496C167.301 44.1333 166.96 43.792 166.661 43.472C166.384 43.1307 165.595 42.0213 164.293 40.144C162.992 38.2667 162.235 37.2 162.021 36.944C161.808 36.6667 161.584 36.4 161.349 36.144C160.667 35.4187 159.984 35.056 159.301 35.056V34.736C159.472 34.7573 159.696 34.768 159.973 34.768C160.251 34.768 160.592 34.7573 160.997 34.736C163.643 34.672 165.307 33.5627 165.989 31.408C166.117 30.9813 166.181 30.5867 166.181 30.224C166.181 29.84 166.181 29.5947 166.181 29.488C166.139 28.0587 165.765 26.9067 165.061 26.032C164.357 25.1573 163.408 24.688 162.213 24.624C161.701 24.6027 161.061 24.592 160.293 24.592ZM195.364 23.92H194.852C194.404 23.92 194.009 24.0693 193.668 24.368C193.348 24.6453 193.177 24.9973 193.156 25.424V38.096C193.156 40.592 192.366 42.608 190.788 44.144C189.209 45.68 187.108 46.448 184.484 46.448C181.86 46.448 179.726 45.6907 178.084 44.176C176.462 42.64 175.652 40.624 175.652 38.128V25.52C175.652 24.88 175.374 24.4107 174.82 24.112C174.564 23.984 174.276 23.92 173.956 23.92H173.444V23.6H179.94V23.92H179.428C178.958 23.92 178.564 24.0693 178.244 24.368C177.924 24.6453 177.753 25.008 177.732 25.456V37.68C177.732 40.0053 178.35 41.8827 179.588 43.312C180.846 44.7413 182.521 45.456 184.612 45.456C186.702 45.456 188.398 44.784 189.7 43.44C191.001 42.0747 191.652 40.2933 191.652 38.096V25.456C191.63 25.008 191.46 24.6453 191.14 24.368C190.82 24.0693 190.425 23.92 189.956 23.92H189.444V23.6H195.364V23.92ZM198.921 44.688C198.857 44.3893 198.825 43.8133 198.825 42.96C198.825 42.1067 198.985 41.2 199.305 40.24H199.593C199.571 40.4747 199.561 40.7093 199.561 40.944C199.561 42.2453 199.955 43.3333 200.745 44.208C201.534 45.0613 202.579 45.488 203.881 45.488C205.225 45.488 206.323 45.0827 207.177 44.272C208.051 43.4613 208.489 42.448 208.489 41.232C208.489 39.9947 208.073 38.992 207.241 38.224L201.097 32.528C199.945 31.4613 199.369 30.1707 199.369 28.656C199.369 27.1413 199.87 25.8507 200.873 24.784C201.897 23.696 203.273 23.152 205.001 23.152C205.811 23.152 206.729 23.2587 207.753 23.472H209.001V27.408H208.713C208.713 26.4053 208.361 25.6053 207.657 25.008C206.974 24.4107 206.089 24.112 205.001 24.112C203.913 24.112 202.995 24.4747 202.249 25.2C201.523 25.9253 201.161 26.832 201.161 27.92C201.161 29.008 201.587 29.9467 202.441 30.736L208.745 36.56C209.811 37.5413 210.345 38.8853 210.345 40.592C210.345 42.2987 209.801 43.7067 208.713 44.816C207.625 45.904 206.174 46.448 204.361 46.448C203.422 46.448 202.419 46.2987 201.353 46C200.307 45.7227 199.497 45.2853 198.921 44.688Z" fill="url(#paint0_linear_87_39)"/>
<defs>
<linearGradient id="paint0_linear_87_39" x1="52" y1="36" x2="213" y2="36" gradientUnits="userSpaceOnUse">
<stop stop-color="#2D3648"/>
<stop offset="1" stop-color="#6D83AE"/>
</linearGradient>
</defs>
</svg>
